<mxfile host="app.diagrams.net" modified="2023-09-25T11:11:44.249Z" agent="Mozilla/5.0 (Windows NT 10.0; Win64; x64) AppleWebKit/537.36 (KHTML, like Gecko) Chrome/116.0.0.0 Safari/537.36" version="21.6.9" etag="xAjkrqWttmwTsEj76fDf" type="github">
  <diagram name="Page-1" id="YhLEsn-104YKKxMJ8aRw">
    <mxGraphModel>
      <root>
        <mxCell id="0" />
        <mxCell id="1" parent="0" />
      </root>
    </mxGraphModel>
  </diagram>
</mxfile>
